<svg width="512" height="512" overflow="hidden" fill="#0056d6"  version="1.1" id="Capa_1" xmlns="http://www.w3.org/2000/svg" xmlns:xlink="http://www.w3.org/1999/xlink" viewBox="0 0 57.94 57.94" xml:space="preserve" stroke="#0056d6"><g id="SVGRepo_bgCarrier" stroke-width="0"></g><g id="SVGRepo_tracerCarrier" stroke-linecap="round" stroke-linejoin="round"></g><g id="SVGRepo_iconCarrier"> <path d="M36.972,30.076c1.421-3.143,2.173-6.557,2.173-10.084c0-6.816-2.786-13.221-7.845-18.035L29.244,0l-2.057,1.956 c-5.059,4.815-7.845,11.22-7.845,18.036c0,3.502,0.741,6.894,2.142,10.019C9.557,32.314,1.242,42.609,1.549,55.024l0.071,2.837 l2.837,0.07c0.215,0.005,0.429,0.008,0.643,0.008c11.179,0,20.958-7.226,24.117-17.62c3.04,10.536,12.434,17.62,23.609,17.62 c0.218,0,0.438-0.002,0.657-0.008l2.837-0.07l0.071-2.837C56.694,42.762,48.595,32.494,36.972,30.076z M32.524,33.658 c-0.368,0.489-0.759,0.962-1.166,1.422c-0.058,0.065-0.118,0.13-0.176,0.194c-0.399,0.442-0.812,0.874-1.247,1.288 c-0.005,0.005-0.01,0.01-0.014,0.014l-0.677,0.645l-0.678-0.645c-0.444-0.422-0.865-0.863-1.271-1.314 c-0.058-0.064-0.117-0.127-0.174-0.192c-0.409-0.463-0.801-0.939-1.17-1.43c-0.012-0.016-0.023-0.031-0.035-0.047 c-0.48-0.641-0.914-1.313-1.324-1.999c0.806-0.062,1.613-0.097,2.417-0.078l2.26,0.046l1.887-0.046c0.9-0.023,1.81,0.027,2.721,0.11 c-0.411,0.685-0.846,1.355-1.326,1.995C32.541,33.635,32.533,33.647,32.524,33.658z M28.566,3.405l0.678-0.645l0.677,0.644v0 c4.658,4.433,7.224,10.324,7.224,16.586c0,3.417-0.769,6.722-2.22,9.741c-1.276-0.158-2.557-0.244-3.819-0.214l-1.841,0.046 l-2.21-0.046c-1.168-0.029-2.341,0.041-3.511,0.172c-1.438-3.008-2.201-6.298-2.201-9.699C21.343,13.729,23.908,7.838,28.566,3.405z M4.506,55.933l-0.935-0.023l-0.022-0.935C3.262,43.369,11.15,33.755,22.402,31.85c0.911,1.648,2.02,3.203,3.31,4.645 c0.072,0.081,0.146,0.161,0.219,0.242c0.404,0.44,0.818,0.873,1.256,1.29l0.467,0.444C25.143,48.893,15.488,56.19,4.506,55.933z M54.369,55.909l-0.935,0.023c-0.203,0.005-0.404,0.007-0.604,0.007c-10.709,0-19.645-7.073-22.026-17.441l0.496-0.472 c0.432-0.411,0.841-0.838,1.24-1.272c0.078-0.084,0.155-0.169,0.231-0.254c1.277-1.426,2.378-2.964,3.284-4.592 c10.95,2.019,18.621,11.606,18.337,23.067L54.369,55.909z"></path> </g></svg>