<?xml version="1.0" standalone="no"?>
<!DOCTYPE svg PUBLIC "-//W3C//DTD SVG 20010904//EN"
 "http://www.w3.org/TR/2001/REC-SVG-20010904/DTD/svg10.dtd">
<svg version="1.0" xmlns="http://www.w3.org/2000/svg"
 width="512.000000pt" height="512.000000pt" viewBox="0 0 512.000000 512.000000"
 preserveAspectRatio="xMidYMid meet">

<g transform="translate(0.000000,512.000000) scale(0.100000,-0.100000)"
fill="currentcolor" stroke="none">
<path d="M3278 5099 c-76 -40 -72 1 -78 -794 l-5 -710 -27 -58 c-37 -78 -77
-127 -137 -168 -75 -51 -89 -103 -38 -149 20 -20 40 -20 1003 -20 670 0 992 3
1011 11 38 14 83 57 99 96 21 48 21 1658 0 1706 -16 39 -61 82 -99 96 -19 8
-296 11 -860 11 -808 -1 -833 -1 -869 -21z m1682 -939 l0 -800 -854 0 -855 0
35 58 c72 118 68 81 72 850 l3 692 799 0 800 0 0 -800z"/>
<path d="M3705 4455 c-16 -15 -25 -36 -25 -55 0 -19 9 -40 25 -55 l24 -25 431
0 431 0 24 25 c16 15 25 36 25 55 0 19 -9 40 -25 55 l-24 25 -431 0 -431 0
-24 -25z"/>
<path d="M3705 3975 c-16 -15 -25 -36 -25 -55 0 -19 9 -40 25 -55 l24 -25 351
0 351 0 24 25 c16 15 25 36 25 55 0 19 -9 40 -25 55 l-24 25 -351 0 -351 0
-24 -25z"/>
<path d="M2310 4625 c-237 -30 -439 -90 -655 -194 -335 -162 -612 -401 -816
-705 -173 -257 -282 -530 -336 -841 -35 -206 -17 -691 29 -765 18 -29 69 -44
101 -29 43 20 51 55 34 161 -9 51 -18 123 -21 161 l-7 67 420 0 419 0 6 -22
c3 -13 6 -59 6 -103 1 -44 5 -114 10 -155 7 -63 12 -78 36 -98 33 -28 79 -24
107 9 16 20 17 38 11 195 l-7 174 416 0 417 0 0 -305 0 -305 -51 0 c-43 0 -55
-5 -80 -29 -33 -33 -35 -50 -14 -90 17 -35 32 -41 96 -41 l49 0 0 -536 0 -537
-72 7 c-40 4 -115 14 -166 22 -97 15 -122 11 -149 -25 -20 -26 -15 -70 10 -95
52 -52 403 -81 658 -56 997 101 1772 882 1870 1883 19 202 -8 574 -47 634 -28
44 -101 42 -130 -3 -16 -24 -16 -33 -1 -132 9 -59 20 -135 23 -169 l7 -63
-422 0 -421 0 -4 23 c-3 12 -8 87 -11 166 -6 147 -17 192 -50 205 -34 13 -72
6 -94 -18 -22 -23 -22 -26 -15 -200 l7 -176 -417 0 -416 0 0 305 0 305 51 0
c43 0 55 5 80 29 33 33 35 50 14 90 -17 35 -32 41 -96 41 l-49 0 0 535 0 536
68 -6 c37 -4 106 -13 155 -21 116 -19 124 -18 152 11 32 31 33 78 2 109 -18
18 -46 27 -132 41 -145 23 -436 29 -575 10z m170 -686 l0 -532 -83 6 c-167 13
-340 52 -523 118 -101 37 -98 25 -38 186 49 134 132 302 195 398 64 96 192
232 260 276 51 32 154 78 177 79 9 0 12 -113 12 -531z m-470 414 c-130 -142
-271 -399 -349 -635 -13 -38 -27 -68 -33 -68 -30 0 -314 205 -376 273 l-23 24
93 79 c123 103 260 192 403 260 108 53 292 123 324 124 7 0 -10 -26 -39 -57z
m-806 -602 c108 -91 190 -150 295 -213 47 -28 87 -52 89 -53 1 -1 -11 -69 -27
-151 -39 -194 -60 -358 -67 -519 -3 -71 -7 -140 -10 -152 l-4 -23 -420 0 -421
0 7 68 c17 191 61 385 125 545 43 110 130 281 181 356 45 66 158 211 165 211
3 0 42 -31 87 -69z m637 -376 c173 -65 463 -125 600 -125 l39 0 0 -305 0 -305
-418 0 -417 0 2 78 c5 123 22 297 43 427 18 115 49 265 55 265 1 0 45 -16 96
-35z m1634 -922 c-2 -16 -6 -80 -9 -143 -3 -63 -13 -168 -21 -234 -15 -111
-61 -355 -69 -363 -2 -2 -43 12 -92 30 -171 65 -463 127 -599 127 l-45 0 0
305 0 305 420 0 420 0 -5 -27z m1005 3 c0 -118 -57 -391 -114 -549 -68 -187
-212 -438 -324 -566 l-39 -45 -79 67 c-98 84 -241 187 -314 227 -30 16 -61 33
-68 38 -10 7 -6 39 17 158 39 194 60 358 67 519 3 72 7 140 10 153 l4 22 420
0 420 0 0 -24z m-1580 -772 c108 -18 214 -48 343 -95 87 -31 89 -32 83 -60
-10 -53 -78 -224 -131 -334 -79 -161 -146 -258 -254 -366 -75 -75 -112 -103
-171 -132 -41 -20 -87 -39 -102 -43 l-28 -6 0 532 0 533 83 -6 c45 -4 125 -14
177 -23z m667 -255 c87 -54 203 -140 272 -204 l54 -51 -94 -79 c-126 -106
-262 -193 -410 -264 -109 -52 -291 -121 -320 -121 -6 0 12 26 41 58 134 150
256 369 341 611 17 50 35 91 40 91 5 0 39 -19 76 -41z"/>
<path d="M105 1906 c-37 -17 -80 -62 -94 -99 -8 -19 -11 -293 -11 -848 0 -674
2 -825 14 -852 16 -39 61 -82 99 -96 19 -8 296 -11 858 -11 811 0 831 0 869
20 79 40 74 -2 80 795 l5 710 27 57 c36 78 71 121 132 165 28 20 57 43 64 52
20 24 14 70 -13 96 l-24 25 -988 0 c-803 -1 -994 -3 -1018 -14z m1729 -203
c-72 -119 -68 -82 -72 -851 l-3 -692 -799 0 -800 0 0 800 0 800 854 0 855 0
-35 -57z"/>
<path d="M505 1255 c-16 -15 -25 -36 -25 -55 0 -19 9 -40 25 -55 l24 -25 431
0 431 0 24 25 c16 15 25 36 25 55 0 19 -9 40 -25 55 l-24 25 -431 0 -431 0
-24 -25z"/>
<path d="M505 775 c-16 -15 -25 -36 -25 -55 0 -19 9 -40 25 -55 l24 -25 271 0
271 0 24 25 c33 32 33 78 0 110 l-24 25 -271 0 -271 0 -24 -25z"/>
</g>
</svg>
